<?xml version="1.0" encoding="UTF-8" standalone="no"?>
<svg
   width="128"
   height="128"
   viewBox="0 0 128 128"
   version="1.1"
   id="svg1"
   sodipodi:docname="icone_enonce.svg"
   inkscape:version="1.4.2 (ebf0e940d0, 2025-05-08)"
   xml:space="preserve"
   xmlns:inkscape="http://www.inkscape.org/namespaces/inkscape"
   xmlns:sodipodi="http://sodipodi.sourceforge.net/DTD/sodipodi-0.dtd"
   xmlns="http://www.w3.org/2000/svg"
   xmlns:svg="http://www.w3.org/2000/svg"><defs
     id="defs1" /><sodipodi:namedview
     id="namedview1"
     pagecolor="#ffffff"
     bordercolor="#000000"
     borderopacity="0.25"
     inkscape:showpageshadow="2"
     inkscape:pageopacity="0.0"
     inkscape:pagecheckerboard="0"
     inkscape:deskcolor="#d1d1d1"
     inkscape:zoom="1.5173333"
     inkscape:cx="-15.158173"
     inkscape:cy="39.543059"
     inkscape:window-width="1920"
     inkscape:window-height="995"
     inkscape:window-x="0"
     inkscape:window-y="0"
     inkscape:window-maximized="1"
     inkscape:current-layer="svg1" /><g
     id="g10"
     style="stroke:#000000;stroke-width:7.46866;stroke-dasharray:none"
     transform="matrix(0.99245317,0,0,1.1560717,0.93931703,-9.7157451)"><path
       id="rect3"
       style="fill:none;stroke:#000000;stroke-width:7.46865;stroke-linecap:round;stroke-linejoin:round;stroke-dasharray:none"
       d="m 102.76522,12.010252 21.8671,22.009165 m 0,0 0.0607,35.37171 0.0557,32.546463 c 0.0169,7.59905 -6.11767,13.71674 -13.71674,13.71674 H 16.512843 c -7.599072,0 -13.7167362,-6.11767 -13.7167362,-13.71674 V 25.726988 c 0,-7.599072 6.1176642,-13.716736 13.7167362,-13.716736 h 86.252367"
       sodipodi:nodetypes="ccccssssssc" /><path
       style="fill:none;stroke:#000000;stroke-width:7.46865;stroke-linecap:round;stroke-linejoin:round;stroke-dasharray:none"
       d="m 102.76521,12.010252 v 22.572497 h 21.98363"
       id="path3"
       sodipodi:nodetypes="ccc" /></g><g
     id="g22"
     transform="matrix(0.13858832,0,0,0.13858832,28.521465,15.216784)"
     style="stroke-width:7.21561;stroke:#000000"><g
       id="g2"
       style="stroke-width:7.21561;stroke:#000000">
	<g
   id="g1"
   style="stroke-width:7.21561;stroke:#000000">
		<path
   d="M 459.61,94.159 284.71,6.709 c -0.016,-0.007 -0.03,-0.016 -0.046,-0.023 -17.948,-8.92 -39.379,-8.919 -57.371,0.023 L 52.438,94.136 c -22.037,10.95 -35.734,33.04 -35.748,57.658 v 208.067 c -0.141,24.628 13.428,46.805 35.484,57.918 l 174.893,87.447 c 9.025,4.517 18.925,6.774 28.825,6.774 9.898,0 19.796,-2.258 28.816,-6.771 l 174.855,-87.427 c 22.038,-10.95 35.735,-33.041 35.747,-57.658 v -208.36 c -0.011,-24.607 -13.708,-46.696 -35.7,-57.625 z m -5.671,265.976 c -0.005,8.801 -4.904,16.702 -12.832,20.641 L 266.202,468.23 c -6.456,3.231 -14.165,3.231 -20.627,-0.004 L 70.732,380.805 C 62.855,376.835 58,368.89 58.061,360.069 c 0,-0.048 0,-0.096 0,-0.143 v -208.12 c 0.005,-8.803 4.905,-16.704 12.833,-20.644 L 245.748,43.735 c 3.21,-1.595 6.732,-2.393 10.253,-2.393 3.518,0 7.036,0.796 10.242,2.388 l 174.91,87.454 c 7.883,3.917 12.782,11.818 12.786,20.61 z"
   id="path1"
   style="stroke-width:7.21561;stroke:#000000" />
	</g>
</g><g
       id="g4"
       style="stroke-width:7.21561;stroke:#000000">
	<g
   id="g3"
   style="stroke-width:7.21561;stroke:#000000">
		<path
   d="m 486.131,118.932 c -5.109,-10.218 -17.536,-14.359 -27.753,-9.25 L 256.001,210.87 53.623,109.681 c -10.219,-5.109 -22.644,-0.967 -27.752,9.25 -5.11,10.219 -0.967,22.644 9.25,27.752 L 246.749,252.5 c 2.912,1.455 6.081,2.183 9.251,2.183 3.17,0 6.339,-0.728 9.25,-2.184 L 476.88,146.684 c 10.219,-5.109 14.36,-17.534 9.251,-27.752 z"
   id="path2"
   style="stroke-width:7.21561;stroke:#000000" />
	</g>
</g><g
       id="g6"
       style="stroke-width:7.21561;stroke:#000000">
	<g
   id="g5"
   style="stroke-width:7.21561;stroke:#000000">
		<path
   d="m 256.001,213.312 c -11.424,0 -20.685,9.262 -20.685,20.685 V 491.1 c 0,11.425 9.262,20.685 20.685,20.685 11.424,0 20.685,-9.261 20.685,-20.685 V 233.998 c 0,-11.424 -9.262,-20.686 -20.685,-20.686 z"
   id="path4"
   style="stroke-width:7.21561;stroke:#000000" />
	</g>
</g><g
       id="g7"
       style="stroke-width:7.21561;stroke:#000000">
</g><g
       id="g8"
       style="stroke-width:7.21561;stroke:#000000">
</g><g
       id="g9"
       style="stroke-width:7.21561;stroke:#000000">
</g><g
       id="g10-5"
       style="stroke-width:7.21561;stroke:#000000">
</g><g
       id="g11"
       style="stroke-width:7.21561;stroke:#000000">
</g><g
       id="g12"
       style="stroke-width:7.21561;stroke:#000000">
</g><g
       id="g13"
       style="stroke-width:7.21561;stroke:#000000">
</g><g
       id="g14"
       style="stroke-width:7.21561;stroke:#000000">
</g><g
       id="g15"
       style="stroke-width:7.21561;stroke:#000000">
</g><g
       id="g16"
       style="stroke-width:7.21561;stroke:#000000">
</g><g
       id="g17"
       style="stroke-width:7.21561;stroke:#000000">
</g><g
       id="g18"
       style="stroke-width:7.21561;stroke:#000000">
</g><g
       id="g19"
       style="stroke-width:7.21561;stroke:#000000">
</g><g
       id="g20"
       style="stroke-width:7.21561;stroke:#000000">
</g><g
       id="g21"
       style="stroke-width:7.21561;stroke:#000000">
</g></g><g
     id="g24"
     transform="translate(0,2)"
     style="stroke:#000000"><path
       style="fill:#b3b3b3;stroke:#000000;stroke-width:3.9;stroke-linecap:round;stroke-linejoin:round;stroke-dasharray:none"
       d="M 31.31876,94.244292 96.68124,94.079529"
       id="path22" /><path
       style="fill:#b3b3b3;stroke:#000000;stroke-width:3.9;stroke-linecap:round;stroke-linejoin:round;stroke-dasharray:none"
       d="m 31.31876,101.82338 65.36248,-0.16476"
       id="path23" /><path
       style="fill:#b3b3b3;stroke:#000000;stroke-width:3.9;stroke-linecap:round;stroke-linejoin:round;stroke-dasharray:none"
       d="m 31.31876,109.40247 65.36248,-0.16476"
       id="path24" /></g></svg>
