<?xml version="1.0" encoding="UTF-8" standalone="no"?>
<svg
   width="128"
   height="128"
   viewBox="0 0 128 128"
   version="1.1"
   id="svg1"
   xmlns="http://www.w3.org/2000/svg"
   xmlns:svg="http://www.w3.org/2000/svg">
  <defs
     id="defs1" />
  <g
     id="g1"
     transform="matrix(0.99636762,0,0,0.99636843,0.15113281,0.23999267)"
     style="stroke-width:1.00365;stroke:#b3b3b3">
    <g
       id="g10"
       style="stroke:#b3b3b3;stroke-width:7.46754;stroke-dasharray:none"
       transform="matrix(1,0,0,1.1560717,0.92409447,-9.7947052)">
      <path
         id="rect3"
         style="fill:none;stroke:#b3b3b3;stroke-width:7.46754;stroke-linecap:round;stroke-linejoin:round;stroke-dasharray:none"
         d="m 62.563106,12.010252 21.867101,22.009165 m 0,0 0.0234,11.079639 m 0.07475,48.584143 0.01836,8.254391 c 0.0169,7.59905 -6.117664,13.71674 -13.716736,13.71674 H 16.512853 c -7.599072,0 -13.7167362,-6.11767 -13.7167362,-13.71674 V 25.726988 c 0,-7.599072 6.1176642,-13.716736 13.7167362,-13.716736 h 46.050253" />
      <path
         style="fill:none;stroke:#b3b3b3;stroke-width:7.46754;stroke-linecap:round;stroke-linejoin:round;stroke-dasharray:none"
         d="M 62.563107,12.010253 V 34.58275 h 21.983626"
         id="path3" />
    </g>
    <g
       id="g9"
       style="stroke:#b3b3b3;stroke-width:8.02916;stroke-dasharray:none"
       transform="translate(1.08699)">
      <path
         style="fill:none;stroke:#b3b3b3;stroke-width:8.02916;stroke-linecap:round;stroke-linejoin:round;stroke-dasharray:none"
         d="m 40.925978,69.393927 81.987032,-2e-6"
         id="path4" />
      <g
         id="g6"
         style="stroke:#b3b3b3;stroke-width:8.02916;stroke-dasharray:none">
        <path
           style="fill:none;stroke:#b3b3b3;stroke-width:8.02916;stroke-linecap:round;stroke-linejoin:round;stroke-dasharray:none"
           d="M 57.324305,53.115155 40.925978,69.393927"
           id="path5" />
        <path
           style="fill:none;stroke:#b3b3b3;stroke-width:8.02916;stroke-linecap:round;stroke-linejoin:round;stroke-dasharray:none"
           d="M 57.20475,85.792254 40.925978,69.393927"
           id="path6" />
      </g>
      <g
         id="g8"
         transform="rotate(180,81.919494,69.393926)"
         style="stroke:#b3b3b3;stroke-width:8.02916;stroke-dasharray:none">
        <path
           style="fill:none;stroke:#b3b3b3;stroke-width:8.02916;stroke-linecap:round;stroke-linejoin:round;stroke-dasharray:none"
           d="M 57.324305,53.115155 40.925978,69.393927"
           id="path7" />
        <path
           style="fill:none;stroke:#b3b3b3;stroke-width:8.02916;stroke-linecap:round;stroke-linejoin:round;stroke-dasharray:none"
           d="M 57.20475,85.792254 40.925978,69.393927"
           id="path8" />
      </g>
    </g>
  </g>
</svg>
