<?xml version="1.0" encoding="UTF-8" standalone="no"?>
<svg
   viewBox="0 0 250 52"
   height="52"
   width="250"
   xml:space="preserve"
   id="svg2"
   version="1.1"
   sodipodi:docname="logo_irem_noir.svg"
   inkscape:version="1.4.2 (ebf0e940d0, 2025-05-08)"
   xmlns:inkscape="http://www.inkscape.org/namespaces/inkscape"
   xmlns:sodipodi="http://sodipodi.sourceforge.net/DTD/sodipodi-0.dtd"
   xmlns="http://www.w3.org/2000/svg"
   xmlns:svg="http://www.w3.org/2000/svg"
   xmlns:rdf="http://www.w3.org/1999/02/22-rdf-syntax-ns#"
   xmlns:cc="http://creativecommons.org/ns#"
   xmlns:dc="http://purl.org/dc/elements/1.1/"><sodipodi:namedview
     id="namedview23"
     pagecolor="#ffffff"
     bordercolor="#666666"
     borderopacity="1.0"
     inkscape:showpageshadow="2"
     inkscape:pageopacity="0"
     inkscape:pagecheckerboard="true"
     inkscape:deskcolor="#d1d1d1"
     showgrid="false"
     inkscape:zoom="3.3154413"
     inkscape:cx="131.65668"
     inkscape:cy="76.007981"
     inkscape:window-width="1920"
     inkscape:window-height="995"
     inkscape:window-x="0"
     inkscape:window-y="0"
     inkscape:window-maximized="1"
     inkscape:current-layer="g998" /><metadata
     id="metadata8"><rdf:RDF><cc:Work
         rdf:about=""><dc:format>image/svg+xml</dc:format><dc:type
           rdf:resource="http://purl.org/dc/dcmitype/StillImage" /></cc:Work></rdf:RDF></metadata><defs
     id="defs6"><clipPath
   id="clipPath20"
   clipPathUnits="userSpaceOnUse"><path
     id="path18"
     d="m 29.0039,0.0117188 h 3828 V 813.60972 h -3828 z" /></clipPath><clipPath
   id="clipPath34"
   clipPathUnits="userSpaceOnUse"><path
     id="path32"
     d="m 29.0039,1087.33 h 3828 v 813.598 h -3828 z" /></clipPath>

<rect
   x="21.978619"
   y="143.85576"
   width="191.24419"
   height="90.381439"
   id="rect408" /></defs><path
     id="path44"
     style="fill:none;fill-opacity:1;fill-rule:nonzero;stroke:none;stroke-width:0.133333"
     d="m 517.40665,200.66666 v -0.66667 H 1.3333333 V 1.3333357 H 516.73999 V 200.66666 h 0.66666 v -0.66667 0.66667 h 0.66667 V 2.428137e-6 H 0 V 201.33333 h 518.07332 v -0.66667 h -0.66667" /><g
     id="g998"
     transform="translate(-1.6598676)"><g
       id="g332"
       transform="matrix(0.49438138,0,0,0.49438138,-2.2236375,-23.767723)"
       style="fill:#000000"><g
         id="g828"
         transform="translate(4.8088066)"
         style="fill:#000000"><path
           d="m 254.00851,105.56466 c 0,-28.325332 -114.156,-54.871998 -114.156,-54.871998 0,0 91.588,27.454666 91.588,55.783998 0,28.32547 -92.29333,44.164 -92.29333,44.164 0,0 114.86133,-16.75053 114.86133,-45.076"
           style="fill:#000000;fill-opacity:1;fill-rule:nonzero;stroke:none;stroke-width:0.133333"
           id="path46" /><path
           d="m 254.44584,105.56466 c 0,-28.325332 114.15867,-54.871998 114.15867,-54.871998 0,0 -91.59067,27.454666 -91.59067,55.783998 0,28.32547 92.29467,44.164 92.29467,44.164 0,0 -114.86267,-16.75053 -114.86267,-45.076"
           style="fill:#000000;fill-opacity:1;fill-rule:nonzero;stroke:none;stroke-width:0.133333"
           id="path48" /></g><g
         aria-label="Paris-Nord"
         transform="scale(1.0773347,0.92821665)"
         id="text54"
         style="font-weight:bold;font-size:40.742px;font-family:'Perpetua Std';-inkscape-font-specification:Perpetua-Bold;fill:#000000;stroke-width:1.23762"><path
           d="m 293.73788,110.061 c 1.22226,0.16296 2.11859,0.20371 3.01491,0.20371 6.80391,0 9.08547,-3.87049 9.08547,-6.8854 0,-3.09639 -2.36304,-6.315012 -8.1484,-6.315012 h -12.2226 v 0.692615 c 2.48526,0.529646 3.0149,1.100034 3.0149,3.259357 v 15.56345 c 0,2.40377 -0.61113,3.13713 -3.0149,3.62603 v 0.69262 h 11.24479 v -0.69262 c -2.28155,-0.40742 -2.97417,-1.22226 -2.97417,-3.34084 z m 0,-11.652215 h 1.99636 c 2.60749,0 4.40014,2.077845 4.40014,5.174235 0,3.38158 -1.75191,5.3372 -4.64459,5.3372 -0.65187,0 -1.10004,-0.0815 -1.75191,-0.28519 z"
           id="path1717"
           style="fill:#000000" /><path
           d="m 320.46846,110.67213 c 0,-4.23717 -3.46307,-5.74463 -6.76317,-5.74463 -3.58529,0 -6.07056,1.91488 -6.8854,5.21498 h 0.61113 c 0.97781,-1.71116 2.52601,-2.56675 4.60385,-2.56675 2.77046,0 3.82975,1.30375 3.82975,4.03346 -3.74827,1.38523 -9.85957,1.71117 -9.85957,5.86685 0,2.24081 2.07785,4.03346 4.60385,4.03346 1.87413,0 3.3001,-0.44816 4.8483,-1.83339 l 0.36668,-0.32594 c 0.77409,1.5482 1.83339,2.15933 3.70752,2.15933 2.24081,0 3.58529,-1.05929 3.74826,-2.97417 h -0.65187 c -0.16297,0.93707 -0.57039,1.42597 -1.22226,1.42597 -0.69261,0 -0.93707,-0.61113 -0.93707,-2.0371 z m -4.64458,7.57801 c -1.0593,1.05929 -1.95562,1.58894 -2.89269,1.58894 -1.263,0 -2.11858,-1.10004 -2.11858,-2.77046 0,-2.07784 1.18152,-3.01491 5.01127,-4.64459 z"
           id="path1719"
           style="fill:#000000" /><path
           d="m 339.9839,106.23125 c -0.73336,-0.85558 -1.71117,-1.30375 -2.72972,-1.30375 -1.91487,0 -3.58529,1.5482 -5.09275,4.88904 h -0.0815 v -4.88904 h -0.69262 l -6.72243,0.61113 v 0.69262 c 1.95562,0.16297 2.8112,1.05929 2.8112,3.01491 v 8.10765 c 0,1.75191 -0.52964,2.36304 -2.56674,2.85194 v 0.69262 h 9.77808 v -0.69262 c -2.24081,-0.44816 -2.60749,-1.01855 -2.60749,-2.85194 v -6.27426 c 1.18152,-1.62968 2.0371,-2.20007 3.42233,-2.20007 1.05929,0 2.11858,0.69261 3.46307,1.99636 z"
           id="path1721"
           style="fill:#000000" /><path
           d="m 349.71197,104.96825 h -0.69261 l -6.68169,0.57038 v 0.69262 c 2.24081,0.44816 2.77046,0.97781 2.77046,2.85194 v 8.18914 c 0,1.95562 -0.48891,2.526 -2.56675,2.93342 v 0.69262 h 9.65586 v -0.69262 c -1.71117,-0.20371 -2.48527,-1.05929 -2.48527,-2.60748 z m -4.97052,-6.926143 c 0,1.466712 1.22226,2.688973 2.68897,2.688973 1.46671,0 2.64823,-1.222261 2.64823,-2.688973 0,-1.466713 -1.18152,-2.648231 -2.64823,-2.648231 -1.46671,0 -2.68897,1.181518 -2.68897,2.648231 z"
           id="path1723"
           style="fill:#000000" /><path
           d="m 365.84578,104.96825 h -0.69261 c -0.20371,0.16296 -0.57039,0.40742 -0.93707,0.40742 -0.28519,0 -0.93707,-0.12223 -1.71116,-0.24446 -0.7741,-0.0815 -1.67043,-0.20371 -2.36304,-0.20371 -3.38159,0 -5.37794,2.24081 -5.37794,4.68533 0,5.78537 9.04472,4.48162 9.04472,8.55582 0,1.22226 -1.263,2.24081 -2.72971,2.24081 -2.20007,0 -4.03346,-1.58893 -5.58166,-4.84829 h -0.69261 v 5.94833 h 0.69261 c 0.32594,-0.32594 0.85558,-0.52965 1.42597,-0.52965 0.48891,0 1.05929,0.12223 1.79265,0.24445 0.69261,0.16297 1.5482,0.2852 2.526,0.2852 2.48527,0 5.54092,-1.99636 5.54092,-5.29646 0,-6.35575 -8.9225,-5.21498 -8.9225,-8.47434 0,-1.01855 1.14077,-1.71116 2.56674,-1.71116 2.0371,0 3.78901,1.38523 4.72608,3.70752 h 0.69261 z"
           id="path1725"
           style="fill:#000000" /><path
           d="m 381.62244,111.48697 h -12.18185 v 3.42232 h 12.18185 z"
           id="path1727"
           style="fill:#000000" /><path
           d="m 406.15858,101.66814 c 0,-2.118579 0.73335,-3.748259 3.46307,-3.911227 v -0.692615 h -8.06692 v 0.692615 c 2.52601,0.570388 3.01491,1.670422 3.01491,4.563107 v 10.71514 L 390.63588,97.064298 h -7.1706 v 0.692615 c 0.97781,0.20371 1.34449,0.488904 3.17788,2.363037 v 15.97086 c 0.0407,2.3223 -0.57039,3.70752 -3.13713,4.11494 v 0.69262 h 8.22988 v -0.69262 c -2.72971,-0.44816 -3.50381,-1.18151 -3.50381,-3.789 v -14.58564 l 17.15238,19.35245 h 0.7741 z"
           id="path1729"
           style="fill:#000000" /><path
           d="m 430.76676,113.19813 c 0,-3.78901 -2.93343,-8.27063 -9.57437,-8.27063 -7.29282,0 -9.61511,5.09275 -9.61511,8.27063 0,4.11494 3.21861,8.31137 9.61511,8.31137 6.39649,0 9.57437,-4.23717 9.57437,-8.31137 z m -5.09275,0 c 0,4.48162 -1.62968,7.21133 -4.48162,7.21133 -2.77046,0 -4.52236,-2.72971 -4.52236,-6.92614 0,-4.31865 1.30374,-7.45578 4.52236,-7.45578 3.01491,0 4.48162,2.85194 4.48162,7.17059 z"
           id="path1731"
           style="fill:#000000" /><path
           d="m 448.24507,106.23125 c -0.73336,-0.85558 -1.71117,-1.30375 -2.72972,-1.30375 -1.91487,0 -3.58529,1.5482 -5.09275,4.88904 h -0.0815 v -4.88904 h -0.69262 l -6.72243,0.61113 v 0.69262 c 1.95562,0.16297 2.8112,1.05929 2.8112,3.01491 v 8.10765 c 0,1.75191 -0.52964,2.36304 -2.56674,2.85194 v 0.69262 h 9.77808 v -0.69262 c -2.24081,-0.44816 -2.60749,-1.01855 -2.60749,-2.85194 v -6.27426 c 1.18152,-1.62968 2.0371,-2.20007 3.42233,-2.20007 1.05929,0 2.11858,0.69261 3.46307,1.99636 z"
           id="path1733"
           style="fill:#000000" /><path
           d="m 468.40269,95.393876 h -0.69261 l -7.70024,0.448162 v 0.692614 c 2.89268,0.08148 3.789,0.896325 3.789,2.892683 v 7.048365 c -1.58893,-1.05929 -3.34084,-1.5482 -5.50017,-1.5482 -4.84829,0 -8.1484,3.30011 -8.1484,8.06692 0,3.78901 2.28156,7.90395 9.81883,7.90395 h 11.48924 v -0.69262 c -2.60749,-0.44816 -3.05565,-0.93706 -3.05565,-3.50381 z m -4.60385,21.063614 c 0,2.60749 -0.73335,3.50381 -2.77045,3.50381 -2.28155,0 -5.78537,-1.58894 -5.78537,-7.25207 0,-4.11495 1.62968,-6.68169 4.23717,-6.68169 1.67042,0 3.25936,0.93706 4.31865,2.48526 z"
           id="path1735"
           style="fill:#000000" /></g><g
         aria-label="IREM"
         transform="translate(-10.967906,-68.976805)"
         id="text406"
         style="font-weight:bold;font-size:56px;line-height:1.25;font-family:'Perpetua Std';-inkscape-font-specification:'Perpetua Std Bold';letter-spacing:13.74px;word-spacing:0px;white-space:pre;shape-inside:url(#rect408);display:inline;fill:#000000"><path
           d="m 35.810516,159.47947 c 0,-3.136 0.224,-4.368 4.144,-5.264 v -0.952 h -15.512 v 0.952 c 3.416,0.84 4.144,1.68 4.144,4.592 v 20.944 c 0,3.192 -0.112,4.312 -4.144,5.32 v 0.952 h 15.512 v -0.952 c -3.416,-0.84 -4.144,-1.68 -4.144,-4.592 z"
           id="path1738"
           style="fill:#000000" /><path
           d="m 61.814501,180.87147 c 0,2.632 -1.456,3.976 -4.144,4.2 v 0.952 h 15.568 v -0.952 c -3.024,-0.448 -4.2,-1.68 -4.2,-4.592 v -10.08 c 2.912,0 4.032,0.056 5.488,1.512 2.52,2.52 4.872,9.856 8.456,14.112 h 9.464 v -0.952 c -1.4,-0.224 -2.128,-0.56 -2.968,-1.4 -2.968,-2.968 -6.496,-13.44 -10.136,-14.28 v -0.112 c 4.704,-1.344 6.608,-4.424 6.608,-7.784 0,-4.592 -3.64,-8.232 -12.712,-8.232 h -15.568 v 0.952 c 3.528,0.672 4.144,1.736 4.144,4.48 z m 7.224,-25.76 h 2.24 c 4.48,0 6.832,2.296 6.832,6.496 0,5.432 -2.856,7.392 -9.072,6.944 z"
           id="path1740"
           style="fill:#000000" /><path
           d="m 131.1624,164.57547 h -1.064 c -0.672,2.968 -1.904,4.088 -4.536,4.088 h -5.768 v -13.552 h 6.328 c 3.64,0 4.872,1.232 5.936,5.432 h 0.952 v -7.28 h -24.584 v 0.952 c 3.472,0.672 4.144,1.68 4.144,4.536 v 21.056 c 0,3.36 -0.504,4.48 -4.144,5.264 v 0.952 h 24.976 l 0.616,-7.952 h -0.952 c -1.064,3.136 -2.856,6.104 -6.888,6.104 h -1.904 c -3.248,0 -4.48,-1.064 -4.48,-4.032 v -9.632 h 5.768 c 2.688,0 4.144,1.344 4.536,4.2 h 1.064 z"
           id="path1742"
           style="fill:#000000" /><path
           d="m 190.71031,159.53547 c -0.448,-3.024 0.336,-4.704 3.696,-5.32 v -0.952 h -11.088 l -8.68,21.616 -8.568,-21.616 h -11.816 v 0.952 c 1.68,0.056 3.472,0.896 4.76,2.24 l -3.248,21.392 c -0.784,5.04 -2.296,7.056 -5.824,7.224 v 0.952 h 11.872 v -0.952 c -3.696,-0.28 -4.424,-2.856 -3.864,-6.664 l 2.856,-19.264 h 0.112 l 10.528,26.88 h 1.176 l 10.64,-26.88 h 0.112 l 2.688,18.704 c 0.616,4.256 0,6.328 -3.584,7.224 v 0.952 h 16.184 v -0.952 c -3.192,-0.616 -4.592,-2.24 -4.984,-5.096 z"
           id="path1744"
           style="fill:#000000" /></g></g></g></svg>
